<?xml version="1.0" encoding="utf-8"?>
<!-- Generator: Adobe Illustrator 23.0.0, SVG Export Plug-In . SVG Version: 6.00 Build 0)  -->
<svg version="1.1" id="Calque_1" xmlns="http://www.w3.org/2000/svg" xmlns:xlink="http://www.w3.org/1999/xlink" x="0px" y="0px"
	 viewBox="0 0 534.79 361.7" style="enable-background:new 0 0 534.79 361.7;" xml:space="preserve">
<style type="text/css">
	.st0{fill:#FFFFFF;}
</style>
<g>
	<g>
		<path class="st0" d="M396,94.93c2.38-1.7,3.96-2.74,5.44-3.89c13.63-10.52,27.23-21.06,40.85-31.58
			c4.86-3.75,5.95-3.51,10.39,2.21c4.3,5.54,4.28,6.38-0.54,10.11c-17.81,13.78-35.64,27.55-53.48,41.29
			c-5.73,4.42-8.78,3.73-12.11-2.77c-4.47-8.74-8.75-17.58-13.33-26.26c-2.16-4.11-1.15-6.68,2.91-8.45
			c1.03-0.45,2.05-0.94,3.02-1.52c3.68-2.22,6.26-1.45,8.08,2.56C389.95,82.59,392.89,88.45,396,94.93z"/>
		<g>
			<path class="st0" d="M58.87,83.24v219.73c0,1.18,1.31,1.83,2.15,1.06l114.27-104.56c1.36-1.23,1.39-3.43,0.1-4.71L61.08,82.22
				C60.22,81.39,58.87,82.03,58.87,83.24z"/>
			<path class="st0" d="M282.28,204.98l-26.66,26.25c-5.89,5.81-13.64,9.01-21.79,9.01c-7.89,0-15.32-3.03-20.89-8.52l-27.18-26.75
				l-0.77-0.76L72.64,307c-0.49,0.45-0.19,1.32,0.46,1.32h321.84c0.66,0,0.95-0.86,0.46-1.32L283.05,204.2L282.28,204.98z"/>
			<path class="st0" d="M292.72,199.47L406.76,303.8c0.85,0.77,2.16,0.14,2.16-1.05V143.33c21.11-7.28,36.34-27.3,36.34-50.85
				c0-29.67-24.13-53.8-53.8-53.8c-22.29,0-41.47,13.64-49.61,33.01H66.45c-0.64,0-0.95,0.84-0.48,1.3l119.26,117.4l7.15,7.05
				l27.18,26.74c0.98,0.98,2.03,1.82,3.18,2.54l1.22,0.65c0.77,0.41,1.51,0.85,2.32,1.17l1.55,0.45c0.75,0.22,1.48,0.48,2.25,0.62
				l1.68,0.15c0.73,0.06,1.47,0.18,2.24,0.17c0.75,0,1.5-0.13,2.27-0.22l1.74-0.2c0.79-0.15,1.56-0.43,2.32-0.68l1.59-0.49
				c0.85-0.34,1.64-0.83,2.45-1.28l1.26-0.67c1.18-0.78,2.31-1.66,3.35-2.7l26.66-26.25l7.16-7.05l66.12-65.08
				c2.05,2.65,4.34,5.09,6.83,7.32l-63.11,62.13C291.35,196.05,291.39,198.24,292.72,199.47z M351.4,92.48
				c0-22.09,17.97-40.06,40.07-40.06c22.08,0,40.06,17.96,40.06,40.06c0,22.09-17.98,40.06-40.06,40.06
				C369.37,132.54,351.4,114.57,351.4,92.48z"/>
		</g>
	</g>
	<g>
		<polygon class="st0" points="533.38,180.11 503.11,149.84 503.11,210.38 		"/>
		<path class="st0" d="M2.44,0.77v358.69h501.99V0.77H2.44z M496.8,353.34H10.07V6.89H496.8V353.34z"/>
	</g>
</g>
</svg>
