<?xml version="1.0" encoding="utf-8"?>
<!-- Generator: Adobe Illustrator 16.0.0, SVG Export Plug-In . SVG Version: 6.00 Build 0)  -->
<!DOCTYPE svg PUBLIC "-//W3C//DTD SVG 1.1//EN" "http://www.w3.org/Graphics/SVG/1.1/DTD/svg11.dtd">
<svg version="1.1" xmlns="http://www.w3.org/2000/svg" xmlns:xlink="http://www.w3.org/1999/xlink" x="0px" y="0px"
	 width="508.475px" height="396.167px" viewBox="0 0 508.475 396.167" enable-background="new 0 0 508.475 396.167"
	 xml:space="preserve">
<g id="Calque_3">
	<defs>
		<rect id="SVGID_1_" x="-908.567" y="404.697" width="799.28" height="183.696"/>
	</defs>
	<clipPath id="SVGID_2_">
		<use xlink:href="#SVGID_1_"  overflow="visible"/>
	</clipPath>
	<g id="bg1" clip-path="url(#SVGID_2_)">
	</g>
</g>
<g id="Calque_4">
</g>
<g id="Calque_1">
</g>
<g id="ico_3_">
</g>
<g id="smLogo">
	<g id="logo_1_">
		<path fill-rule="evenodd" clip-rule="evenodd" fill="#FFFFFF" d="M477.925,110.869c8.427-0.059,15.78,4.052,19.606,10.156
			C488.008,36.035,432.509,0.21,335.226,11.838c0.234,35.039,0.458,67.637,0.665,100.002L477.925,110.869z"/>
		<path fill-rule="evenodd" clip-rule="evenodd" fill="#FFFFFF" d="M501.958,371.948c0.072,10.936-9.843,19.865-22.137,19.951
			l-122.439,0.836c-12.303,0.086-22.338-8.713-22.413-19.643l-1.604-234.271c-0.072-10.932,9.842-19.865,22.143-19.95l122.442-0.836
			c12.294-0.086,22.329,8.715,22.404,19.643L501.958,371.948z"/>
		<path fill-rule="evenodd" clip-rule="evenodd" fill="#FFFFFF" d="M263.434,9.872c-56.346,3.12-99.169,37.592-110.891,93.47
			c-4.64,22.139-13.932,29.193-35.591,28.511c-37.498-1.186-64.188,0.025-107.938,0.324c-7.05,16.561,1.229,37.125,8.457,41.518
			c12.06,7.329,19.877,7.539,29.105,17.748c12.311,13.62-1.318,39.819,29.521,48.1c11.102,2.979,28.345-2.289,31.345,4.117
			c6.46,13.803,2.337,31.746,2.907,56.421c46.678,2.503,91.03-10.459,122.333-37.428c39.989-34.455,55.636-79.346,65.542-126.077
			c0.85-3.997,1.15-11.794-2.187-14.17c-4.354-3.099,5.728-3.85,7.239-12.059c2.969-16.058,5.482-32.183,8.557-47.976
			c1.227-6.265,5.198-20.782,3.492-32.335c-0.392-2.606,6.58-10.549,5.516-12.726c-0.682-1.398-9.175,2.795-10.205,1.665
			C300.051,7.307,272.396,9.375,263.434,9.872z M272.44,77.76c-9.669,0.067-17.567-7.723-17.638-17.395
			c-0.062-9.673,7.726-17.567,17.4-17.632c9.672-0.07,17.564,7.718,17.635,17.392C289.901,69.797,282.117,77.696,272.44,77.76z"/>
	</g>
</g>
</svg>
