<svg id="eYMlG6XIEuU1" xmlns="http://www.w3.org/2000/svg" xmlns:xlink="http://www.w3.org/1999/xlink" viewBox="0 0 214.74 82.21" shape-rendering="geometricPrecision" text-rendering="geometricPrecision"><g><g><path d="M41.71,37.19h-9.93c-.810563.065053-1.4352.74183-1.4352,1.555s.624637,1.489947,1.4352,1.555h9.93c.810563-.065053,1.4352-.74183,1.4352-1.555s-.624637-1.489947-1.4352-1.555Z" fill="none"/><path d="M105.35,14.17c-2.411647.023535-4.550403,1.554645-5.35,3.83L93.08,38.57c-.918713,2.841454-1.496104,5.782121-1.72,8.76h-.23c-.274021-2.971704-.853754-5.907229-1.73-8.76L82.43,18c-.77783-2.281476-2.919576-3.816462-5.33-3.82v0c-2.016195-.008851-3.880929,1.068721-4.88,2.82-3.3-2.4-7.56-3.62-12.8-3.62q-8.66,0-13.88,4.89c-1.133086-3.796055-3.219347-7.23873-6.06-10Q32,1,18.4,1L1,1v56h15.7q14.7,0,22.5-7.36c.800558-.776916,1.545715-1.608952,2.23-2.49.906561,1.807291,2.113758,3.44732,3.57,4.85q5.82,5.72,16.17,5.71c2.959521.05432,5.917181-.183499,8.83-.71c1.446908-.301756,2.870505-.706111,4.26-1.21c1.523228-.568411,2.532291-2.024174,2.53-3.65v-.82c.002746-1.228156-.577631-2.384709-1.563933-3.116545s-2.26143-.952068-3.436067-.593455c-.84.26-1.67.48-2.49.67-2.491889.552126-5.037714.823815-7.59.81q-5,0-7.72-2.81c-.587735-.596118-1.092293-1.268861-1.5-2-.663305-1.205546-.642254-2.671413.055394-3.857415s1.968641-1.916609,3.344606-1.922585h19.54c.883117-.000771,1.73854-.308299,2.42-.87l6,15.74c.827744,2.186194,2.922351,3.631712,5.26,3.63h4.22c2.337006.001718,4.432988-1.438026,5.27-3.62l1.07-2.82l10.92-32.17c1.17-3.08-1.51-4.33-5.24-4.22ZM28.59,28.07c.05006,1.302476-.607828,2.530278-1.72,3.21l-16.48,8.9c-1.91,1-4.07-.67-4.07-3.22v-.12c-.05028-1.338809.647059-2.594789,1.81-3.26l5.63-2.78c2.35-1.16,2.42-5.18.12-6.46L8,21.09c-1.094333-.68836-1.738498-1.908082-1.69-3.2c0-2.61,2.27-4.31,4.19-3.14L27,24.78c1.038233.701513,1.642665,1.887711,1.6,3.14ZM41.71,41.52h-9.93c-.856041,0-1.55-.693959-1.55-1.55s.693959-1.55,1.55-1.55h9.93c.856041,0,1.55.693959,1.55,1.55s-.693959,1.55-1.55,1.55ZM62.46,30.71h-5.85c-1.507457.016516-2.886584-.846084-3.53139-2.208775s-.43728-2.976072.53139-4.131225l.08-.08c1.510836-1.566712,3.626369-2.401982,5.8-2.29c2.195277-.105797,4.333527.718282,5.89,2.27v0c2.3,2.46.37,6.44-2.92,6.44Z" fill="none" stroke="#213a79" stroke-width="2" stroke-miterlimit="10"/><path id="eYMlG6XIEuU6" d="M157.5,28.2c0-.502579-.407421-.91-.91-.91-1.476679-.11597-2.962135-.042033-4.42.22-.43-.91-1-2.17-1.61-3.09.449333-.712323.843806-1.457809,1.18-2.23.28-.6.18-1,.35-1c.397612-.188484.600639-.636836.48-1.06v0c-.5639-1.071838-1.355802-2.007101-2.32-2.74-.624207-.58311-1.344908-1.053426-2.13-1.39-.124668-.119419-.275255-.208402-.44-.26-1.33-.41-3.23,2-3.78,2.93-1.269516-.653561-2.612288-1.153744-4-1.49-.15-1-.72-3.3-.72-4.08c0-.238695-.094821-.467613-.263604-.636396s-.397701-.263604-.636396-.263604c-.112829-.001342-.224864.019028-.33.06-.11,0-.35-.07-.89-.1-1.475654-.159688-2.966249-.115946-4.43.13-.079306-.014897-.160694-.014897-.24,0-.56,0-.89.45-1,1.08-.185144,1.25655-.185144,2.53345,0,3.79-1.36185.32399-2.650818.900633-3.8,1.7-.76-.81-2.53-3-3.32-3.3v0c-.249701-.090582-.519383-.111327-.78-.06-1.32.25-4.83,3.2-5.27,4.29-.53,1.33,1.75,3.48,2.7,4.37-.927223,1.021929-1.641166,2.218635-2.1,3.52-1.455576-.185276-2.925172-.23549-4.39-.15-.374117-.018585-.72063.196492-.87.54v0c-.73281,1.720169-1.185212,3.546661-1.34,5.41-.066757.334434.065725.677328.34.88c1.510814,1.08344,3.253758,1.799108,5.09,2.09l.67,3.46c-1.577776.778267-2.948587,1.919467-4,3.33-.145717.217476-.189525.48762-.12.74v0c.763416,2.049092,1.891622,3.942987,3.33,5.59.276654.240948.670937.292205,1,.13c1-.42,2.92-1.36,3.89-1.85.904857,1.045377,1.909624,1.999905,3,2.85-.653808,1.227413-.954936,2.61191-.87,4c.000995.298088.151155.575885.4.74v0c.936784.649656,1.942981,1.193002,3,1.62.960944.378777,1.971215.617875,3,.71c1.37.12,2.54-2.89,2.75-4.22c1.302363.254892,2.639423.278586,3.95.07.571543,1.276252,1.311454,2.470201,2.2,3.55.151319.195147.374736.32127.62.35c2.114693.190822,4.231223-.345365,6-1.52.283898-.188384.435332-.522314.39-.86-.113455-1.508117-.450472-2.99099-1-4.4l2.94-2.9c1.53.89,3.53,1.65,5.09,1.32.237109-.048641.445498-.188764.58-.39.721221-1.040555,1.290289-2.17869,1.69-3.38.27-.69,1.11-1.8.42-2.41-.080782-.075144-.176063-.132994-.28-.17-.908906-.864264-1.889042-1.65038-2.93-2.35.124465-.39616.221363-.800459.29-1.21.195601-1.176987.302568-2.366998.32-3.56.15-.16,1-.08,2-.5s2-.82,2.18-.87c.410415-.09354.701171-.459062.7-.88v0c0-2.22-1.36-3.65-1.36-5.24Zm-2.23,5.3c-.756607.318145-1.491519.685602-2.2,1.1-.415039-.003365-.778556.277535-.88.68v0v0c-.009605.062969-.009605.127031,0,.19c0,.47-.2,4.26-.69,4.82-.259162.256231-.338215.643464-.200225.980774s.465783.558105.830225.559226c.55,0,1.93,1.33,2.7,2-.426841,1.225375-.969284,2.407366-1.62,3.53-1.244985-.065705-2.449833-.462717-3.49-1.15-.41-.23-.74-.55-1.25-.38-.81.29-3.9,3.61-4.26,4-.163119.155248-.262882.365463-.28.59s.53,1.57.64,2c.179332.752226.31952,1.513249.42,2.28-1.200418.679321-2.560916,1.024625-3.94,1-.847152-1.028084-1.522531-2.186358-2-3.43-.148696-.410155-.570148-.654597-1-.58-1.655764.356031-3.374123.29417-5-.18-.302566-.072723-.621388.012432-.847398.226334s-.328573.527558-.272602.833666c-.069136,1.18266-.437295,2.328427-1.07,3.33-1.638952-.212619-3.204661-.808754-4.57-1.74.025195-1.195802.370514-2.362983,1-3.38v0v0v0c.123309-.249233.125898-.541167.007028-.792548s-.346151-.434617-.617028-.497452c-.79-.18-3.31-3.11-3.48-3.31v0c-.24295-.292019-.643089-.400057-1-.27-.33.11-2.81,1.41-3.94,1.91-.906048-1.203614-1.674186-2.505088-2.29-3.88c1.04999-1.144144,2.300615-2.086348,3.69-2.78v0c.341249-.207291.507514-.612816.41-1l-1-5c-.071358-.324141-.313532-.583724-.631948-.677376s-.662566-.006517-.898052.227376v-.06c-1.253938-.257492-2.452416-.734852-3.54-1.41.111286-1.332219.410936-2.641925.89-3.89c1.2,0,3.14-.24,3.91.29.272712.210567.641706.246961.950299.093728s.502624-.469197.499701-.813728c0-.65,1.65-3.66,2-3.67.27474.032362.549626-.059266.75-.25.349614-.35115.349614-.91885,0-1.27-1-1-2.63-2.28-3.06-3.41c1.063721-1.172789,2.293431-2.183509,3.65-3c1.06.88,2.17,2.35,3.25,3.39.170314.183708.40949.288118.66.288118s.489686-.10441.66-.288118c1.100422-.87768,2.386264-1.493243,3.76-1.8.332805.18777.747467.147622,1.038068-.100506s.395231-.651377.261932-1.009494c-.181706-1.274994-.221951-2.566165-.12-3.85.21-.15,1.11,0,1.13-.24.929047.030792,1.854721.127703,2.77.29h.5c.30809,1.350466.548391,2.715508.72,4.09.003303.326573.181355.626333.466552.785465s.633801.15323.913448-.015465c.23-.15,3.37,1.42,4.37,1.83.290903.122039.624259.084709.880964-.098651s.400131-.48659.379036-.801349c.525975-.830085,1.204638-1.552861,2-2.13.84.3-.07-.57,1.87,1.07.574723.465589,1.100748.988264,1.57,1.56-.43.76-1.11,2.34-1.4,3-.295334.016069-.564436.174668-.721551.425257s-.182644.561906-.068449.834743c.078733.239215.233177.44631.44.59.13.23.35.63.59,1.09.6,1.13,1.25,2.47,1.35,2.77v0c.093092.272247.310739.483576.58561.568608s.573831.033517.80439-.138608c.52-.4,2.27-.36,3.53-.32.25,1.3,1,2.4,1.23,3.71-.49.18-1.11.41-1.74.68Z" fill="#213a79"/><path d="M146.67,34.5c-.33-3.85-1.69-6.65-3.92-8.43s-5.25-2.5-8.94-2.23h-.29c-.467564.038356-.931973.108518-1.39.21-2.610313.555125-4.863186,2.190276-6.2,4.5v0c-1.263907,2.195284-1.819196,4.727263-1.59,7.25.039279.535351.119513,1.066907.24,1.59c0,.12.05.22.07.32.79764,2.83518,2.704752,5.228984,5.29,6.64c2.40761,1.424062,5.246933,1.93514,8,1.44l.3-.07c2.533703-.649867,4.787145-2.106531,6.42-4.15c1.501648-1.944252,2.215734-4.382855,2-6.83.02-.11.01-.2.01-.24Zm-3.4,6c-1.388983,1.722191-3.296996,2.949773-5.44,3.5h-.23c-2.33237.421535-4.738448-.019165-6.77-1.24-2.160525-1.165125-3.760878-3.151149-4.44-5.51c0-.1,0-.18-.06-.26-.092598-.449139-.159375-.903218-.2-1.36-.198876-2.145555.269074-4.30022,1.34-6.17v0c1.082445-1.86469,2.895364-3.191746,5-3.66.382305-.083235.769889-.140036,1.16-.17h.27c3.22-.23,5.83.37,7.68,1.84s3,3.84,3.25,7.16c0,.13,0,.21,0,.25.203171,1.999569-.353753,4.002354-1.56,5.61Z" fill="#213a79"/><path id="eYMlG6XIEuU8" d="M171.29,48.59c1.209132,1.493173,2.754619,2.678846,4.51,3.46c1.033666-.907719,1.824256-2.05923,2.3-3.35.030534-.361967.245989-.682441.569662-.84733s.70958-.150771,1.020338.03733c1.665177,1.067053,3.568274,1.705999,5.54,1.86.500199.075845.877081.494602.9,1c.093386,1.542076.448452,3.057024,1.05,4.48c1.520756.49724,3.146577.580085,4.71.24.15-1,.24-1.89.29-2.68c0-.57,0-2.47,0-2.5.087614-.244518.266931-.445352.5-.56.52-.28,5.07-3,6.06-3c.63,0,.9.44,1.27.84.927128,1.105301,2.131672,1.943994,3.49,2.43c1.105971-1.035232,2.110532-2.173736,3-3.4-.62-1-1.72-3-2.33-3.14-.454312-.064772-.806228-.430452-.853529-.886914s.222152-.886533.653529-1.043086c.73-.46,2.22-4.62,2.38-5.14.021879-.073208.052076-.143668.09-.21v0v0c.245506-.412589.739589-.606105,1.2-.47.933487-.215836,1.878288-.379423,2.83-.49.78-.09,1.56-.16,2.16-.21.19-1.54-.3-3-.14-4.55-1.39-.46-3.32-1.08-4-.81-.325335.117475-.687524.068827-.97033-.130332s-.450651-.523775-.44967-.869668v0c0-.36-.29-2.07-.58-3.53-.12-.59-.23-1.11-.3-1.41-.179751-.228781-.281395-.509178-.29-.8-.034122-.342126.098241-.679807.355764-.907615s.608828-.317988.944236-.242385c.53-.6,1.82-2.13,2.55-2.84-.339558-.794692-.754805-1.554863-1.24-2.27-1.61-2.47-.88-1.19-1.72-1.81-1.074521.382805-2.068189.962727-2.93,1.71-.081957.358916-.344275.649602-.69292.767856s-.73368.047137-1.01708-.187856c-1-.78-3.95-3.57-4.27-3.48-.367968.093561-.757874-.016828-1.022184-.289397s-.362653-.665688-.257816-1.030603c.270293-1.585777.457216-3.18464.56-4.79l-.55-.2c-1.48-.53-2.37-1.21-3-1.22-.12.29-1.06-.21-1.34-.11-.540156,1.392902-.922541,2.841942-1.14,4.32.019185.283928-.075524.563802-.263183.777734s-.45281.344296-.736817.362266c-.299488.013989-.589451-.107135-.79-.33-1.633543-.110988-3.271039.148823-4.79.76-.248954.149204-.548198.189799-.827904.112313s-.515405-.266275-.652096-.522313c-.85-1.52-1.6-3.53-2.49-4.86-1.780162.453941-3.484719,1.164734-5.06,2.11.1,1.4,1.55,3.39,2.28,4.82.261584.516444.055814,1.147175-.46,1.41-.280033.124925-.599967.124925-.88,0-.36-.09-3.2,2.72-3.41,3.44-.118569.379892-.439932.661363-.832135.728839s-.789156-.090414-1.027865-.408839c-.69-.85-2.93-1.24-4.26-1.62-.950994,1.216758-1.722209,2.563858-2.29,4c1.005085,1.120557,2.200087,2.054893,3.53,2.76v.06c.33953-.175419.746843-.156432,1.068583.049811s.509053.568428.491417.950189L169.09,31c-.043179.439119-.353861.805565-.78.92v0c-1.765725.322465-3.45924.959226-5,1.88.228933,1.739339.655006,3.446986,1.27,5.09c1.43-.19,4.62-.81,5-.83.433526-.013688.83085.2406,1,.64v0c.13.28,2,4.38,2.79,4.84.278666.16249.468176.443032.514886.762212s-.054466.642261-.274886.877788v0v0v0c-1.049182.916234-1.833136,2.097345-2.27,3.42Zm.84,3.7c-1.04434-.818261-1.990617-1.754471-2.82-2.79v0c-.244395-.271741-.32108-.655164-.2-1c.36877-1.556057,1.157394-2.981114,2.28-4.12-.929789-1.311156-1.733373-2.707384-2.4-4.17-1.24.22-3.64.64-5,.77-.395086.043194-.781138-.138251-1-.47-1.056904-2.314712-1.687019-4.801296-1.86-7.34v0c.003813-.305976.147507-.593364.39-.78c1.633913-1.226172,3.536431-2.045455,5.55-2.39l.4-4.08c-1.956231-.924474-3.668657-2.294416-5-4-.243636-.313284-.278952-.740998-.09-1.09c1.09-2.11,1.24-3.17,3.3-5.59v0c.275882-.341655.742377-.46335,1.15-.3c1.52.54,3.43.79,4.84,1.62.940828-1.299101,2.134783-2.39441,3.51-3.22-.77-1.31-2.6-4.46-1.56-5.77.85-1.07,5.75-3.2,7.31-3c.305352.029277.596372.143606.84.33v0c.77.62,2,3.62,2.6,4.78c1.54644-.508694,3.174667-.722398,4.8-.63.231217-1.460459.675977-2.878972,1.32-4.21.247018-.596839.872632-.944862,1.51-.84.096416.019395.190341.049585.28.09c1.72007.210402,3.402718.657986,5,1.33.6.21.83.38,1,.41.125502-.024288.254498-.024288.38,0c.274829.068139.507888.249593.641333.499326s.154764.54433.058667.810674c-.26.87-.38,3.6-.56,4.78c1.425364.839081,2.74481,1.846291,3.93,3c.91-.8,3.85-2.9,5.19-2c.16894.112886.309305.263522.41.44.767222.610709,1.420585,1.35209,1.93,2.19.830917,1.134969,1.401142,2.439314,1.67,3.82v0c-.018168.503754-.391755.923515-.89,1-.21,0-.22.46-.73,1-.627143.752733-1.312596,1.454904-2.05,2.1.31,1.21.58,2.82.76,4c1.712043.202179,3.391879.618779,5,1.24.268425.078725.494341.261304.627633.507237s.16294.534887.082367.802763c-.53,1.78.51,3.82-.22,6.26v0c-.121437.480677-.576729.799807-1.07.75-.27,0-1.47.1-2.72.24s-2.19-.24-2.41-.11c-.440016,1.315433-.971307,2.598551-1.59,3.84-.206693.434985-.447443.852953-.72,1.25.925196,1.125517,1.754748,2.32636,2.48,3.59.104836.078691.193178.177227.26.29.57.91-.74,1.86-1.26,2.54-.846859,1.200551-1.856525,2.277528-3,3.2-.213482.181925-.490366.271823-.77.25-1.85-.15-3.83-1.67-5.24-3.17l-4.23,2.26c.130759,1.752535.002718,3.514773-.38,5.23-.051328.392897-.329797.71843-.71.83-2.34551.719461-4.865429.624303-7.15-.27v0c-.269439-.103719-.480902-.318828-.58-.59-.624639-1.501742-1.051545-3.078267-1.27-4.69-1.530956-.199568-3.014123-.670253-4.38-1.39-.68,1.41-3,4.38-4.47,3.79-1.13147-.442543-2.189969-1.052697-3.14-1.81ZM173,18.36v.08-.08Zm-4.91,5.58l-.13.12.13-.12Z" transform="matrix(0-1 1 0 157.09037 218.819832)" fill="#213a79"/><path d="M177,29.49c0,.09,0,.19,0,.3-.028619,2.859462,1.096052,5.609858,3.12,7.63c1.857826,2.034601,4.391772,3.324674,7.13,3.63h.27c2.567328.108388,5.101648-.610195,7.23-2.05c1.894551-1.37544,3.201344-3.41418,3.66-5.71l.06-.28c.79-3.8.32-6.81-1.24-9.06s-4.27-3.8-7.95-4.61l-.3-.06c-.445427-.094544-.896294-.16134-1.35-.2-2.515371-.201244-4.997934.67474-6.83,2.41v0c-1.815422,1.730598-3.051806,3.979839-3.54,6.44-.111658.520977-.188495,1.048811-.23,1.58Zm-2.12.22v-.38c.041736-.622151.128632-1.240446.26-1.85.584091-2.888748,2.047686-5.526014,4.19-7.55v0c2.253153-2.143974,5.308612-3.233912,8.41-3c.544173.043669,1.085177.120479,1.62.23l.33.07c4.2.93,7.33,2.75,9.22,5.46s2.48,6.3,1.57,10.7c0,0,0,.15-.07.29-.55432,2.818497-2.159405,5.320856-4.49,7-2.49939,1.730303-5.492252,2.603952-8.53,2.49h-.36c-3.250441-.349615-6.263591-1.86685-8.48-4.27-2.419018-2.428853-3.753439-5.732447-3.7-9.16Z" fill="#213a79"/><g id="eYMlG6XIEuU10" transform="translate(.000001 0.000001)" opacity="0.39"><path d="M0.4,78.45v-11.17h3.42c1.489772-.091578,2.95244.428482,4.05,1.44c1.005319,1.081806,1.528579,2.525281,1.45,4c.118421,1.573379-.425292,3.124773-1.5,4.28-1.194261,1.038742-2.750592,1.563509-4.33,1.46Zm1.3-1.12h1.58c1.268305.096398,2.523158-.313497,3.49-1.14.838689-.921558,1.26174-2.147321,1.17-3.39.0905-1.198211-.301979-2.382849-1.09-3.29-.890127-.798572-2.067507-1.199458-3.26-1.11h-1.89Z" fill="#213a79"/><path d="M11.15,74.33c-.064563-1.155567.290572-2.295551,1-3.21.652255-.796986,1.640964-1.24135,2.67-1.2.934151-.051494,1.842855.314919,2.48,1c.6315.7656.95584,1.73862.91,2.73v.8h-5.76c-.031202.813097.23549,1.609619.75,2.24.52274.535647,1.253016.816803,2,.77.91975-.00416,1.828732-.198212,2.67-.57v1.13c-.406597.186284-.832508.327136-1.27.42-.474588.090362-.956902.133904-1.44.13-1.092675.055599-2.157615-.355112-2.93-1.13-.751422-.871651-1.135045-2.00101-1.07-3.15m1.33-.87h4.39c.04305-.65787-.148257-1.309732-.54-1.84-.396963-.419663-.964821-.633531-1.54-.58-.607564-.027193-1.196346.214171-1.61.66-.4331.510458-.683024,1.151109-.71,1.82" fill="#213a79"/><path d="M19.06,70.08h1.36l1.8,5c.279191.743673.519516,1.501363.72,2.27h.06c.143602-.569899.320574-1.130867.53-1.68q.45-1.27,2-5.55h1.37l-3.18,8.37h-1.49Z" fill="#213a79"/><path d="M27.77,74.33c-.06007-1.155007.294589-2.293461,1-3.21.652255-.796986,1.640964-1.24135,2.67-1.2.934384-.052907,1.843667.31374,2.48,1c.635093.76415.963048,1.737319.92,2.73v.8h-5.77c-.031202.813097.23549,1.609619.75,2.24.523489.53451,1.253224.815458,2,.77.91975-.00416,1.828732-.198212,2.67-.57v1.13c-.406597.186284-.832508.327136-1.27.42-.474588.090362-.956902.133904-1.44.13-1.089874.056556-2.152114-.354516-2.92-1.13-.758771-.867965-1.146575-1.999059-1.08-3.15m1.33-.87h4.39c.04513-.63963-.13144-1.275284-.5-1.8-.398097-.446176-.984704-.676364-1.58-.62-.607564-.027193-1.196346.214171-1.61.66-.426012.514656-.674966,1.152819-.71,1.82" fill="#213a79"/><rect width="1.27" height="11.89" rx="0" ry="0" transform="translate(37.02 66.56)" fill="#213a79"/><path d="M40.52,74.25c-.080514-1.15135.276633-2.29065,1-3.19.727711-.780711,1.764319-1.198285,2.83-1.14c1.058208-.04706,2.081884.382224,2.79,1.17c1.374564,1.89719,1.374564,4.46281,0,6.36-.727118.789678-1.767951,1.214808-2.84,1.16-.703048.013309-1.395807-.170272-2-.53-.572346-.368986-1.02424-.897354-1.3-1.52-.330082-.724308-.490816-1.514297-.47-2.31m1.29,0c-.054661.865537.173464,1.725393.65,2.45.483399.533709,1.169916.838159,1.89.838159s1.406601-.30445,1.89-.838159c.476536-.724607.704661-1.584463.65-2.45.058429-.859633-.170196-1.714339-.65-2.43-.467834-.570282-1.184532-.876372-1.92-.82-.722941-.049887-1.424727.256211-1.88.82-.479148.719347-.704391,1.578085-.64,2.44" fill="#213a79"/><path d="M50.43,82.21v-12.13h1l.17,1.13h.06c.284943-.428227.678299-.773277,1.14-1c.466753-.214925.976257-.32093,1.49-.31.987111-.054353,1.939994.369978,2.56,1.14c1.206657,1.962706,1.206657,4.437294,0,6.4-.617887.768159-1.565219,1.195387-2.55,1.15-.512962.002811-1.020725-.102831-1.49-.31-.455343-.204077-.848634-.524919-1.14-.93h-.09c.058266.464419.088321.931943.09,1.4v3.44Zm1.27-8c-.074268.884393.132185,1.76969.59,2.53.470722.543093,1.174339.826029,1.89.76.679366.01451,1.319623-.316918,1.7-.88.450508-.727451.666917-1.575634.62-2.43.05483-.848821-.16235-1.693021-.62-2.41-.40875-.534451-1.058842-.827556-1.73-.78-.6971-.068591-1.385919.194346-1.86.71-.443251.677635-.650629,1.482545-.59,2.29Z" fill="#213a79"/><path d="M59.56,74.33c-.064563-1.155567.290572-2.295551,1-3.21.652255-.796986,1.640964-1.24135,2.67-1.2.934151-.051494,1.842855.314919,2.48,1c.6315.7656.95584,1.73862.91,2.73v.8h-5.76c-.035917.813766.231324,1.611924.75,2.24.52274.535647,1.253016.816803,2,.77.91975-.00416,1.828732-.198212,2.67-.57v1.13c-.406597.186284-.832508.327136-1.27.42-.477895.090823-.963571.134366-1.45.13-1.089668.055272-2.151402-.355605-2.92-1.13-.751422-.871651-1.135045-2.00101-1.07-3.15m1.33-.87h4.39c.04305-.65787-.148257-1.309732-.54-1.84-.399457-.415895-.965432-.629055-1.54-.58-.607564-.027193-1.196346.214171-1.61.66-.4331.510458-.683024,1.151109-.71,1.82" fill="#213a79"/><path d="M68.81,78.45v-8.37h1L70,71.63h.07c.272576-.499764.65564-.930711,1.12-1.26.425292-.296085.931802-.453278,1.45-.45.336059-.004969.67158.028583,1,.1l-.18,1.18c-.297838-.074186-.603112-.114442-.91-.12-.675803-.001281-1.315729.303971-1.74.83-.476056.556447-.732144,1.267802-.72,2v4.49Z" fill="#213a79"/><rect width="3.75" height="1.16" rx="0" ry="0" transform="translate(74.49 73.68)" fill="#213a79"/><path d="M79.84,72.84c-.097372-1.529526.384586-3.039661,1.35-4.23.986864-1.03807,2.379944-1.590183,3.81-1.51c1.419114-.078206,2.798684.483161,3.76,1.53c1.800214,2.52535,1.800214,5.91465,0,8.44-2.117162,2.034385-5.462838,2.034385-7.58,0-.964759-1.202358-1.446157-2.721437-1.35-4.26m1.38,0c-.077563,1.231249.276013,2.451084,1,3.45.741717.748093,1.751536,1.168908,2.805,1.168908s2.063283-.420815,2.805-1.168908c.717992-1.001837,1.070934-2.219489,1-3.45.069561-1.224144-.283469-2.435037-1-3.43-.711224-.795635-1.757271-1.207377-2.82-1.11-1.071061-.071344-2.114032.361378-2.82,1.17-.724144.987425-1.078113,2.197997-1,3.42" fill="#213a79"/><path d="M92.42,82.21v-12.13h1l.18,1.13h.06c.284943-.428227.678299-.773277,1.14-1c.466419-.215936.97616-.32199,1.49-.31.987111-.054353,1.939994.369978,2.56,1.14c1.206657,1.962706,1.206657,4.437294,0,6.4-.619907.765544-1.565842,1.192142-2.55,1.15-.512962.002811-1.020725-.102831-1.49-.31-.455343-.204077-.848634-.524919-1.14-.93h-.07c.058266.464419.088321.931943.09,1.4v3.44Zm1.27-8c-.074268.884393.132185,1.76969.59,2.53.470722.543093,1.174339.826029,1.89.76.679366.01451,1.319623-.316918,1.7-.88.447008-.728577.659907-1.576683.61-2.43.0578-.847732-.155855-1.691847-.61-2.41-.40875-.534451-1.058842-.827556-1.73-.78-.6971-.068591-1.385919.194346-1.86.71-.443251.677635-.650629,1.482545-.59,2.29Z" fill="#213a79"/><path d="M100.91,71.06v-.61l1.2-.53.53-1.79h.73v2h2.43v1h-2.43v4.87c-.028488.421062.099735.837786.36,1.17.255852.277464.623373.424473,1,.4.216195.020221.433805.020221.65,0c.168959-.020621.336107-.05405.5-.1v1c-.19618.077607-.400985.131326-.61.16-.238045.040313-.478648.063705-.72.07-1.62,0-2.43-.86-2.43-2.56v-5Z" fill="#213a79"/><path d="M107.43,67.81c-.019318-.231249.052447-.460898.2-.64.126827-.134241.305461-.207153.49-.2.208376-.007295.411865.064105.57.2.171697.166699.25975.401508.24.64.015632.237902-.071794.471038-.24.64-.159492.134681-.361252.209013-.57.21-.184871-.001528-.361396-.077182-.49-.21-.143075-.181494-.214275-.409334-.2-.64m.11,2.27h1.16v8.37h-1.16Z" fill="#213a79"/><path d="M111.5,78.45v-8.37h1l.21,1.13h.06c.235029-.406252.582237-.7361,1-.95.452882-.227334.953278-.343865,1.46-.34c1.071872-.137482,2.110064.43211,2.57,1.41h.06c.261049-.430038.639113-.776885,1.09-1c.500191-.25889,1.056861-.389467,1.62-.38.779644-.055792,1.548479.207706,2.13.73.524947.661284.775568,1.499075.7,2.34v5.46h-1.27v-5.48c.040437-.533802-.108246-1.064812-.42-1.5-.344372-.360034-.833734-.544005-1.33-.5-.657376-.058067-1.304301.193309-1.75.68-.427208.60921-.628765,1.348252-.57,2.09v4.69h-1.27v-5.46c.042901-.53556-.109877-1.068507-.43-1.5-.34354-.361292-.833531-.5455-1.33-.5-.663849-.060413-1.315899.204133-1.75.71-.427847.70521-.620454,1.528166-.55,2.35v4.4Z" fill="#213a79"/><path d="M126,67.81c-.023849-.231726.048451-.463086.2-.64.126053-.135366.305226-.208498.49-.2.208376-.007295.411865.064105.57.2.171697.166699.25975.401508.24.64.015632.237902-.071794.471038-.24.64-.159492.134681-.361252.209013-.57.21-.18535.000791-.362746-.075236-.49-.21-.147553-.179102-.219318-.408751-.2-.64m.11,2.27h1.16v8.37h-1.16Z" fill="#213a79"/><polygon points="129.3,78.45 129.3,77.59 133.87,71.06 129.58,71.06 129.58,70.08 135.26,70.08 135.26,71.06 130.75,77.47 135.37,77.47 135.37,78.45 129.3,78.45" fill="#213a79"/><path d="M136.87,74.33c-.064563-1.155567.290572-2.295551,1-3.21.652255-.796986,1.640964-1.24135,2.67-1.2.940106-.025271,1.842333.370828,2.46,1.08.6315.7656.95584,1.73862.91,2.73v.8h-5.76c-.031202.813097.23549,1.609619.75,2.24.52274.535647,1.253016.816803,2,.77.91975-.00416,1.828732-.198212,2.67-.57v1.13c-.406597.186284-.832508.327136-1.27.42-.474588.090362-.956902.133904-1.44.13-1.092675.055599-2.157615-.355112-2.93-1.13-.751422-.871651-1.135045-2.00101-1.07-3.15m1.33-.87h4.39c.04305-.65787-.148257-1.309732-.54-1.84-.385062-.436405-.948896-.672257-1.53-.64-.607564-.027193-1.196346.214171-1.61.66-.4331.510458-.683024,1.151109-.71,1.82" fill="#213a79"/><path d="M145.65,74.29c-.072579-1.147176.252321-2.284327.92-3.22.655355-.747769,1.606716-1.169047,2.600873-1.151707s1.930248.471538,2.559127,1.241707h.1l-.06-.6v-.59-3.41h1.23v11.89h-1l-.17-1.12h-.07c-.595204.854081-1.590628,1.338546-2.63,1.28-.980719.046975-1.926028-.371927-2.55-1.13-.66271-.926294-.984257-2.053474-.91-3.19m1.3,0c-.055257.851172.150579,1.698935.59,2.43.402127.545741,1.053326.850637,1.73.81.703744.066795,1.399547-.19091,1.89-.7.443217-.673598.647462-1.476492.58-2.28v-.27c.081349-.888067-.125534-1.778717-.59-2.54-.472675-.540349-1.17483-.822697-1.89-.76-.682574-.02586-1.331143.298425-1.72.86-.42446.747111-.619246,1.602777-.56,2.46" fill="#213a79"/><path d="M159.38,72.84c-.097372-1.529526.384586-3.039661,1.35-4.23.989173-1.040817,2.386527-1.593174,3.82-1.51c1.419114-.078206,2.798684.483161,3.76,1.53.963662,1.191285,1.445396,2.700718,1.35,4.23.087415,1.522159-.3937,3.022524-1.35,4.21-.965022,1.048575-2.346819,1.613022-3.77,1.54-1.430949.085728-2.826284-.467279-3.81-1.51-.964759-1.202358-1.446157-2.721437-1.35-4.26m1.38,0c-.077563,1.231249.276013,2.451084,1,3.45.702855.80701,1.7421,1.239721,2.81,1.17c1.065792.074447,2.104035-.359391,2.8-1.17.700306-1.00826,1.035453-2.225371.95-3.45.082167-1.216596-.249074-2.425272-.94-3.43-.697954-.806898-1.7359-1.236904-2.8-1.16-1.071061-.071344-2.114032.361378-2.82,1.17-.724144.987425-1.078113,2.197997-1,3.42" fill="#213a79"/><path d="M172,78.45v-11.89h1.27v2.89q0,1-.06,1.74h.06c.602114-.842724,1.596334-1.315261,2.63-1.25.984765-.053445,1.935889.366387,2.56,1.13c1.2072,1.958952,1.2072,4.431048,0,6.39-.617887.768159-1.565219,1.195387-2.55,1.15-.512962.002811-1.020725-.102831-1.49-.31-.455343-.204077-.848634-.524919-1.14-.93h-.09l-.26,1.08Zm1.27-4.19c-.074194.881214.132328,1.76331.59,2.52.470722.543093,1.174339.826029,1.89.76.690054.047102,1.352993-.276748,1.74-.85.428394-.742522.63002-1.594221.58-2.45.05714-.853212-.145041-1.703763-.58-2.44-.412206-.554502-1.081422-.856972-1.77-.8-.707909-.066892-1.404499.212489-1.87.75-.452122.754998-.65505,1.633185-.58,2.51" fill="#213a79"/><path d="M179.36,81c.325137.094443.661463.144891,1,.15.325806.025606.646742-.091098.88-.32.205541-.291222.304427-.644387.28-1v-9.75h1.27v9.66c0,1.65-.77,2.47-2.29,2.47-.402096.016453-.803392-.048163-1.18-.19Zm2.09-13.19c-.02112-.23315.054853-.464688.21-.64.145209-.138558.339332-.214051.54-.21.218742-.004403.431747.070149.6.21.179172.162265.271745.399252.25.64.017187.240079-.074632.475138-.25.64-.173096.129822-.38363.2-.6.2-.198585.002673-.391065-.068616-.54-.2-.150201-.178109-.225479-.407527-.21-.64" fill="#213a79"/><path d="M185.05,74.33c-.06007-1.155007.294589-2.293461,1-3.21.655153-.793194,1.641876-1.236665,2.67-1.2.93734-.05311,1.849762.313325,2.49,1c.6315.7656.95584,1.73862.91,2.73v.8h-5.76c-.038714.812471.224915,1.610481.74,2.24.525687.531157,1.253841.811496,2,.77.91975-.00416,1.828732-.198212,2.67-.57v1.13c-.406597.186284-.832508.327136-1.27.42-.477895.090823-.963571.134366-1.45.13-1.089668.055272-2.151402-.355605-2.92-1.13-.751422-.871651-1.135045-2.00101-1.07-3.15m1.33-.87h4.39c.04305-.65787-.148257-1.309732-.54-1.84-.399457-.415895-.965432-.629055-1.54-.58-.607803-.028574-1.197145.213019-1.61.66-.4331.510458-.683024,1.151109-.71,1.82" fill="#213a79"/><path d="M193.83,74.32c-.077231-1.169394.278738-2.326296,1-3.25.734966-.795545,1.789049-1.217912,2.87-1.15.406643.003157.811967.046704,1.21.13.345315.059742.681443.163941,1,.31l-.39,1.08c-.296958-.122676-.605049-.216443-.92-.28-.287862-.071816-.583317-.108747-.88-.11-1.7,0-2.55,1.08-2.55,3.25-.05254.836018.164798,1.666809.62,2.37.442646.564069,1.134362.874406,1.85.83.73912-.008675,1.469441-.161533,2.15-.45v1.12c-.661837.312525-1.388457.463333-2.12.44-1.056137.060164-2.08481-.349841-2.81-1.12-.71252-.897367-1.068623-2.026216-1-3.17" fill="#213a79"/><path d="M200.64,71.06v-.61l1.2-.53.53-1.79h.74v2h2.43v1h-2.43v4.87c-.028488.421062.099735.837786.36,1.17.255852.277464.623373.424473,1,.4.216178.020576.433822.020576.65,0c.169123-.019591.336351-.053037.5-.1v1c-.19573.078971-.400707.132735-.61.16-.238045.040313-.478648.063705-.72.07-1.62,0-2.43-.86-2.43-2.56v-5Z" fill="#213a79"/><path d="M206.74,72.13c-.017149-.643358.295993-1.250779.83-1.61.678557-.433505,1.475956-.643347,2.28-.6.904811.003865,1.799465.19096,2.63.55l-.44,1c-.717834-.324641-1.492575-.504734-2.28-.53-.471179-.027598-.941064.072598-1.36.29-.287223.153425-.464723.454402-.46.78-.00246.202845.05683.401641.17.57.149827.189449.337045.346031.55.46.480314.236466.974559.443515,1.48.62.736231.21785,1.417892.589356,2,1.09.341559.38103.524079.878485.51,1.39.033215.703451-.290067,1.37633-.86,1.79-.723016.47092-1.578927.695421-2.44.64-.892914.04169-1.782375-.136889-2.59-.52v-1.14c.409724.212402.842586.376822,1.29.49.438504.108752.888231.165807,1.34.17.528192.030226,1.055231-.07656,1.53-.31.352924-.204975.558506-.592867.53-1c0-.330495-.155604-.641703-.42-.84-.513118-.350693-1.071575-.629922-1.66-.83-.578402-.19455-1.134784-.449279-1.66-.76-.298228-.185718-.548356-.439273-.73-.74-.169921-.305122-.25293-.650993-.24-1" fill="#213a79"/></g></g></g><script><![CDATA[!function(t,n){"object"==typeof exports&&"undefined"!=typeof module?module.exports=n():"function"==typeof define&&define.amd?define(n):((t="undefined"!=typeof globalThis?globalThis:t||self).__SVGATOR_PLAYER__=t.__SVGATOR_PLAYER__||{},t.__SVGATOR_PLAYER__["5c7f360c"]=n())}(this,(function(){"use strict";function t(t,n){var e=Object.keys(t);if(Object.getOwnPropertySymbols){var r=Object.getOwnPropertySymbols(t);n&&(r=r.filter((function(n){return Object.getOwnPropertyDescriptor(t,n).enumerable}))),e.push.apply(e,r)}return e}function n(n){for(var e=1;e<arguments.length;e++){var r=null!=arguments[e]?arguments[e]:{};e%2?t(Object(r),!0).forEach((function(t){o(n,t,r[t])})):Object.getOwnPropertyDescriptors?Object.defineProperties(n,Object.getOwnPropertyDescriptors(r)):t(Object(r)).forEach((function(t){Object.defineProperty(n,t,Object.getOwnPropertyDescriptor(r,t))}))}return n}function e(t){return(e="function"==typeof Symbol&&"symbol"==typeof Symbol.iterator?function(t){return typeof t}:function(t){return t&&"function"==typeof Symbol&&t.constructor===Symbol&&t!==Symbol.prototype?"symbol":typeof t})(t)}function r(t,n){if(!(t instanceof n))throw new TypeError("Cannot call a class as a function")}function i(t,n){for(var e=0;e<n.length;e++){var r=n[e];r.enumerable=r.enumerable||!1,r.configurable=!0,"value"in r&&(r.writable=!0),Object.defineProperty(t,r.key,r)}}function u(t,n,e){return n&&i(t.prototype,n),e&&i(t,e),t}function o(t,n,e){return n in t?Object.defineProperty(t,n,{value:e,enumerable:!0,configurable:!0,writable:!0}):t[n]=e,t}function a(t){return(a=Object.setPrototypeOf?Object.getPrototypeOf:function(t){return t.__proto__||Object.getPrototypeOf(t)})(t)}function l(t,n){return(l=Object.setPrototypeOf||function(t,n){return t.__proto__=n,t})(t,n)}function s(){if("undefined"==typeof Reflect||!Reflect.construct)return!1;if(Reflect.construct.sham)return!1;if("function"==typeof Proxy)return!0;try{return Boolean.prototype.valueOf.call(Reflect.construct(Boolean,[],(function(){}))),!0}catch(t){return!1}}function f(t,n,e){return(f=s()?Reflect.construct:function(t,n,e){var r=[null];r.push.apply(r,n);var i=new(Function.bind.apply(t,r));return e&&l(i,e.prototype),i}).apply(null,arguments)}function c(t,n){if(n&&("object"==typeof n||"function"==typeof n))return n;if(void 0!==n)throw new TypeError("Derived constructors may only return object or undefined");return function(t){if(void 0===t)throw new ReferenceError("this hasn't been initialised - super() hasn't been called");return t}(t)}function h(t,n,e){return(h="undefined"!=typeof Reflect&&Reflect.get?Reflect.get:function(t,n,e){var r=function(t,n){for(;!Object.prototype.hasOwnProperty.call(t,n)&&null!==(t=a(t)););return t}(t,n);if(r){var i=Object.getOwnPropertyDescriptor(r,n);return i.get?i.get.call(e):i.value}})(t,n,e||t)}function v(t){return function(t){if(Array.isArray(t))return y(t)}(t)||function(t){if("undefined"!=typeof Symbol&&null!=t[Symbol.iterator]||null!=t["@@iterator"])return Array.from(t)}(t)||function(t,n){if(!t)return;if("string"==typeof t)return y(t,n);var e=Object.prototype.toString.call(t).slice(8,-1);"Object"===e&&t.constructor&&(e=t.constructor.name);if("Map"===e||"Set"===e)return Array.from(t);if("Arguments"===e||/^(?:Ui|I)nt(?:8|16|32)(?:Clamped)?Array$/.test(e))return y(t,n)}(t)||function(){throw new TypeError("Invalid attempt to spread non-iterable instance.\nIn order to be iterable, non-array objects must have a [Symbol.iterator]() method.")}()}function y(t,n){(null==n||n>t.length)&&(n=t.length);for(var e=0,r=new Array(n);e<n;e++)r[e]=t[e];return r}Number.isInteger||(Number.isInteger=function(t){return"number"==typeof t&&isFinite(t)&&Math.floor(t)===t}),Number.EPSILON||(Number.EPSILON=2220446049250313e-31);var g=d(Math.pow(10,-6));function d(t){var n=arguments.length>1&&void 0!==arguments[1]?arguments[1]:6;if(Number.isInteger(t))return t;var e=Math.pow(10,n);return Math.round((+t+Number.EPSILON)*e)/e}function p(t,n){var e=arguments.length>2&&void 0!==arguments[2]?arguments[2]:g;return Math.abs(t-n)<e}var m=Math.PI/180;function b(t){return t}function w(t,n,e){var r=1-e;return 3*e*r*(t*r+n*e)+e*e*e}function x(){var t=arguments.length>0&&void 0!==arguments[0]?arguments[0]:0,n=arguments.length>1&&void 0!==arguments[1]?arguments[1]:0,e=arguments.length>2&&void 0!==arguments[2]?arguments[2]:1,r=arguments.length>3&&void 0!==arguments[3]?arguments[3]:1;return t<0||t>1||e<0||e>1?null:p(t,n)&&p(e,r)?b:function(i){if(i<=0)return t>0?i*n/t:0===n&&e>0?i*r/e:0;if(i>=1)return e<1?1+(i-1)*(r-1)/(e-1):1===e&&t<1?1+(i-1)*(n-1)/(t-1):1;for(var u,o=0,a=1;o<a;){var l=w(t,e,u=(o+a)/2);if(p(i,l))break;l<i?o=u:a=u}return w(n,r,u)}}function A(){return 1}function k(t){return 1===t?1:0}function _(){var t=arguments.length>0&&void 0!==arguments[0]?arguments[0]:1,n=arguments.length>1&&void 0!==arguments[1]?arguments[1]:0;if(1===t){if(0===n)return k;if(1===n)return A}var e=1/t;return function(t){return t>=1?1:(t+=n*e)-t%e}}var S=Math.sin,O=Math.cos,j=Math.acos,M=Math.asin,P=Math.tan,E=Math.atan2,I=Math.PI/180,R=180/Math.PI,F=Math.sqrt,N=function(){function t(){var n=arguments.length>0&&void 0!==arguments[0]?arguments[0]:1,e=arguments.length>1&&void 0!==arguments[1]?arguments[1]:0,i=arguments.length>2&&void 0!==arguments[2]?arguments[2]:0,u=arguments.length>3&&void 0!==arguments[3]?arguments[3]:1,o=arguments.length>4&&void 0!==arguments[4]?arguments[4]:0,a=arguments.length>5&&void 0!==arguments[5]?arguments[5]:0;r(this,t),this.m=[n,e,i,u,o,a],this.i=null,this.w=null,this.s=null}return u(t,[{key:"determinant",get:function(){var t=this.m;return t[0]*t[3]-t[1]*t[2]}},{key:"isIdentity",get:function(){if(null===this.i){var t=this.m;this.i=1===t[0]&&0===t[1]&&0===t[2]&&1===t[3]&&0===t[4]&&0===t[5]}return this.i}},{key:"point",value:function(t,n){var e=this.m;return{x:e[0]*t+e[2]*n+e[4],y:e[1]*t+e[3]*n+e[5]}}},{key:"translateSelf",value:function(){var t=arguments.length>0&&void 0!==arguments[0]?arguments[0]:0,n=arguments.length>1&&void 0!==arguments[1]?arguments[1]:0;if(!t&&!n)return this;var e=this.m;return e[4]+=e[0]*t+e[2]*n,e[5]+=e[1]*t+e[3]*n,this.w=this.s=this.i=null,this}},{key:"rotateSelf",value:function(){var t=arguments.length>0&&void 0!==arguments[0]?arguments[0]:0;if(t%=360){var n=S(t*=I),e=O(t),r=this.m,i=r[0],u=r[1];r[0]=i*e+r[2]*n,r[1]=u*e+r[3]*n,r[2]=r[2]*e-i*n,r[3]=r[3]*e-u*n,this.w=this.s=this.i=null}return this}},{key:"scaleSelf",value:function(){var t=arguments.length>0&&void 0!==arguments[0]?arguments[0]:1,n=arguments.length>1&&void 0!==arguments[1]?arguments[1]:1;if(1!==t||1!==n){var e=this.m;e[0]*=t,e[1]*=t,e[2]*=n,e[3]*=n,this.w=this.s=this.i=null}return this}},{key:"skewSelf",value:function(t,n){if(n%=360,(t%=360)||n){var e=this.m,r=e[0],i=e[1],u=e[2],o=e[3];t&&(t=P(t*I),e[2]+=r*t,e[3]+=i*t),n&&(n=P(n*I),e[0]+=u*n,e[1]+=o*n),this.w=this.s=this.i=null}return this}},{key:"resetSelf",value:function(){var t=arguments.length>0&&void 0!==arguments[0]?arguments[0]:1,n=arguments.length>1&&void 0!==arguments[1]?arguments[1]:0,e=arguments.length>2&&void 0!==arguments[2]?arguments[2]:0,r=arguments.length>3&&void 0!==arguments[3]?arguments[3]:1,i=arguments.length>4&&void 0!==arguments[4]?arguments[4]:0,u=arguments.length>5&&void 0!==arguments[5]?arguments[5]:0,o=this.m;return o[0]=t,o[1]=n,o[2]=e,o[3]=r,o[4]=i,o[5]=u,this.w=this.s=this.i=null,this}},{key:"recomposeSelf",value:function(){var t=arguments.length>0&&void 0!==arguments[0]?arguments[0]:null,n=arguments.length>1&&void 0!==arguments[1]?arguments[1]:null,e=arguments.length>2&&void 0!==arguments[2]?arguments[2]:null,r=arguments.length>3&&void 0!==arguments[3]?arguments[3]:null,i=arguments.length>4&&void 0!==arguments[4]?arguments[4]:null;return this.isIdentity||this.resetSelf(),t&&(t.x||t.y)&&this.translateSelf(t.x,t.y),n&&this.rotateSelf(n),e&&(e.x&&this.skewSelf(e.x,0),e.y&&this.skewSelf(0,e.y)),!r||1===r.x&&1===r.y||this.scaleSelf(r.x,r.y),i&&(i.x||i.y)&&this.translateSelf(i.x,i.y),this}},{key:"decompose",value:function(){var t=arguments.length>0&&void 0!==arguments[0]?arguments[0]:0,n=arguments.length>1&&void 0!==arguments[1]?arguments[1]:0,e=this.m,r=e[0]*e[0]+e[1]*e[1],i=[[e[0],e[1]],[e[2],e[3]]],u=F(r);if(0===u)return{origin:{x:d(e[4]),y:d(e[5])},translate:{x:d(t),y:d(n)},scale:{x:0,y:0},skew:{x:0,y:0},rotate:0};i[0][0]/=u,i[0][1]/=u;var o=e[0]*e[3]-e[1]*e[2]<0;o&&(u=-u);var a=i[0][0]*i[1][0]+i[0][1]*i[1][1];i[1][0]-=i[0][0]*a,i[1][1]-=i[0][1]*a;var l=F(i[1][0]*i[1][0]+i[1][1]*i[1][1]);if(0===l)return{origin:{x:d(e[4]),y:d(e[5])},translate:{x:d(t),y:d(n)},scale:{x:d(u),y:0},skew:{x:0,y:0},rotate:0};i[1][0]/=l,i[1][1]/=l,a/=l;var s=0;return i[1][1]<0?(s=j(i[1][1])*R,i[0][1]<0&&(s=360-s)):s=M(i[0][1])*R,o&&(s=-s),a=E(a,F(i[0][0]*i[0][0]+i[0][1]*i[0][1]))*R,o&&(a=-a),{origin:{x:d(e[4]),y:d(e[5])},translate:{x:d(t),y:d(n)},scale:{x:d(u),y:d(l)},skew:{x:d(a),y:0},rotate:d(s)}}},{key:"clone",value:function(){var t=this.m;return new this.constructor(t[0],t[1],t[2],t[3],t[4],t[5])}},{key:"toString",value:function(){var t=arguments.length>0&&void 0!==arguments[0]?arguments[0]:" ";if(null===this.s){var n=this.m.map((function(t){return d(t)}));1===n[0]&&0===n[1]&&0===n[2]&&1===n[3]?this.s="translate("+n[4]+t+n[5]+")":this.s="matrix("+n.join(t)+")"}return this.s}}],[{key:"create",value:function(t){return t?Array.isArray(t)?f(this,v(t)):t instanceof this?t.clone():(new this).recomposeSelf(t.origin,t.rotate,t.skew,t.scale,t.translate):new this}}]),t}();function T(t,n,e){return t>=.5?e:n}function q(t,n,e){return 0===t||n===e?n:t*(e-n)+n}function B(t,n,e){var r=q(t,n,e);return r<=0?0:r}function L(t,n,e){var r=q(t,n,e);return r<=0?0:r>=1?1:r}function C(t,n,e){return 0===t?n:1===t?e:{x:q(t,n.x,e.x),y:q(t,n.y,e.y)}}function D(t,n,e){var r=function(t,n,e){return Math.round(q(t,n,e))}(t,n,e);return r<=0?0:r>=255?255:r}function z(t,n,e){return 0===t?n:1===t?e:{r:D(t,n.r,e.r),g:D(t,n.g,e.g),b:D(t,n.b,e.b),a:q(t,null==n.a?1:n.a,null==e.a?1:e.a)}}function V(t,n){for(var e=[],r=0;r<t;r++)e.push(n);return e}function G(t,n){if(--n<=0)return t;var e=(t=Object.assign([],t)).length;do{for(var r=0;r<e;r++)t.push(t[r])}while(--n>0);return t}var Y,$=function(){function t(n){r(this,t),this.list=n,this.length=n.length}return u(t,[{key:"setAttribute",value:function(t,n){for(var e=this.list,r=0;r<this.length;r++)e[r].setAttribute(t,n)}},{key:"removeAttribute",value:function(t){for(var n=this.list,e=0;e<this.length;e++)n[e].removeAttribute(t)}},{key:"style",value:function(t,n){for(var e=this.list,r=0;r<this.length;r++)e[r].style[t]=n}}]),t}(),U=/-./g,Q=function(t,n){return n.toUpperCase()};function H(t){return"function"==typeof t?t:T}function J(t){return t?"function"==typeof t?t:Array.isArray(t)?function(t){var n=arguments.length>1&&void 0!==arguments[1]?arguments[1]:b;if(!Array.isArray(t))return n;switch(t.length){case 1:return _(t[0])||n;case 2:return _(t[0],t[1])||n;case 4:return x(t[0],t[1],t[2],t[3])||n}return n}(t,null):function(t,n){var e=arguments.length>2&&void 0!==arguments[2]?arguments[2]:b;switch(t){case"linear":return b;case"steps":return _(n.steps||1,n.jump||0)||e;case"bezier":case"cubic-bezier":return x(n.x1||0,n.y1||0,n.x2||0,n.y2||0)||e}return e}(t.type,t.value,null):null}function Z(t,n,e){var r=arguments.length>3&&void 0!==arguments[3]&&arguments[3],i=n.length-1;if(t<=n[0].t)return r?[0,0,n[0].v]:n[0].v;if(t>=n[i].t)return r?[i,1,n[i].v]:n[i].v;var u,o=n[0],a=null;for(u=1;u<=i;u++){if(!(t>n[u].t)){a=n[u];break}o=n[u]}return null==a?r?[i,1,n[i].v]:n[i].v:o.t===a.t?r?[u,1,a.v]:a.v:(t=(t-o.t)/(a.t-o.t),o.e&&(t=o.e(t)),r?[u,t,e(t,o.v,a.v)]:e(t,o.v,a.v))}function K(t,n){var e=arguments.length>2&&void 0!==arguments[2]?arguments[2]:null;return t&&t.length?"function"!=typeof n?null:("function"!=typeof e&&(e=null),function(r){var i=Z(r,t,n);return null!=i&&e&&(i=e(i)),i}):null}function W(t,n){return t.t-n.t}function X(t,n,r,i,u){var o,a="@"===r[0],l="#"===r[0],s=Y[r],f=T;switch(a?(o=r.substr(1),r=o.replace(U,Q)):l&&(r=r.substr(1)),e(s)){case"function":if(f=s(i,u,Z,J,r,a,n,t),l)return f;break;case"string":f=K(i,H(s));break;case"object":if((f=K(i,H(s.i),s.f))&&"function"==typeof s.u)return s.u(n,f,r,a,t)}return f?function(t,n,e){if(arguments.length>3&&void 0!==arguments[3]&&arguments[3])return t instanceof $?function(r){return t.style(n,e(r))}:function(r){return t.style[n]=e(r)};if(Array.isArray(n)){var r=n.length;return function(i){var u=e(i);if(null==u)for(var o=0;o<r;o++)t[o].removeAttribute(n);else for(var a=0;a<r;a++)t[a].setAttribute(n,u)}}return function(r){var i=e(r);null==i?t.removeAttribute(n):t.setAttribute(n,i)}}(n,r,f,a):null}function tt(t,n,r,i){if(!i||"object"!==e(i))return null;var u=null,o=null;return Array.isArray(i)?o=function(t){if(!t||!t.length)return null;for(var n=0;n<t.length;n++)t[n].e&&(t[n].e=J(t[n].e));return t.sort(W)}(i):(o=i.keys,u=i.data||null),o?X(t,n,r,o,u):null}function nt(t,n,e){if(!e)return null;var r=[];for(var i in e)if(e.hasOwnProperty(i)){var u=tt(t,n,i,e[i]);u&&r.push(u)}return r.length?r:null}function et(t,n){if(!n.settings.duration||n.settings.duration<0)return null;var e,r,i,u,o,a=function(t,n){if(!n)return null;var e=[];if(Array.isArray(n))for(var r=n.length,i=0;i<r;i++){var u=n[i];if(2===u.length){var o=null;if("string"==typeof u[0])o=t.getElementById(u[0]);else if(Array.isArray(u[0])){o=[];for(var a=0;a<u[0].length;a++)if("string"==typeof u[0][a]){var l=t.getElementById(u[0][a]);l&&o.push(l)}o=o.length?1===o.length?o[0]:new $(o):null}if(o){var s=nt(t,o,u[1]);s&&(e=e.concat(s))}}}else for(var f in n)if(n.hasOwnProperty(f)){var c=t.getElementById(f);if(c){var h=nt(t,c,n[f]);h&&(e=e.concat(h))}}return e.length?e:null}(t,n.elements);return a?(e=a,r=n.settings,i=r.duration,u=e.length,o=null,function(t,n){var a=r.iterations||1/0,l=(r.alternate&&a%2==0)^r.direction>0?i:0,s=t%i,f=1+(t-s)/i;n*=r.direction,r.alternate&&f%2==0&&(n=-n);var c=!1;if(f>a)s=l,c=!0,-1===r.fill&&(s=r.direction>0?0:i);else if(n<0&&(s=i-s),s===o)return!1;o=s;for(var h=0;h<u;h++)e[h](s);return c}):null}function rt(t,n){if(Y=n,!t||!t.root||!Array.isArray(t.animations))return null;var e=function(t){for(var n=document.getElementsByTagName("svg"),e=0;e<n.length;e++)if(n[e].id===t.root&&!n[e].svgatorAnimation)return n[e].svgatorAnimation=!0,n[e];return null}(t);if(!e)return null;var r=t.animations.map((function(t){return et(e,t)})).filter((function(t){return!!t}));return r.length?{svg:e,animations:r,animationSettings:t.animationSettings,options:t.options||void 0}:null}function it(t){return+("0x"+(t.replace(/[^0-9a-fA-F]+/g,"")||27))}function ut(t,n,e){return!t||!e||n>t.length?t:t.substring(0,n)+ut(t.substring(n+1),e,e)}function ot(t){var n=arguments.length>1&&void 0!==arguments[1]?arguments[1]:27;return!t||t%n?t%n:ot(t/n,n)}function at(t,n,e){if(t&&t.length){var r=it(e),i=it(n),u=ot(r)+5,o=ut(t,ot(r,5),u);return o=o.replace(/\x7c$/g,"==").replace(/\x2f$/g,"="),o=function(t,n,e){var r=+("0x"+t.substring(0,4));t=t.substring(4);for(var i=n%r+e%27,u=[],o=0;o<t.length;o+=2)if("|"!==t[o]){var a=+("0x"+t[o]+t[o+1])-i;u.push(a)}else{var l=+("0x"+t.substring(o+1,o+1+4))-i;o+=3,u.push(l)}return String.fromCharCode.apply(String,u)}(o=(o=atob(o)).replace(/[\x41-\x5A]/g,""),i,r),o=JSON.parse(o)}}var lt=[{key:"alternate",def:!1},{key:"fill",def:1},{key:"iterations",def:0},{key:"direction",def:1},{key:"speed",def:1},{key:"fps",def:100}],st=function(){function t(n,e){var i=this,u=arguments.length>2&&void 0!==arguments[2]?arguments[2]:null;r(this,t),this._id=0,this._running=!1,this._rollingBack=!1,this._animations=n,this._settings=e,(!u||u<"2022-05-02")&&delete this._settings.speed,lt.forEach((function(t){i._settings[t.key]=i._settings[t.key]||t.def})),this.duration=e.duration,this.offset=e.offset||0,this.rollbackStartOffset=0}return u(t,[{key:"alternate",get:function(){return this._settings.alternate}},{key:"fill",get:function(){return this._settings.fill}},{key:"iterations",get:function(){return this._settings.iterations}},{key:"direction",get:function(){return this._settings.direction}},{key:"speed",get:function(){return this._settings.speed}},{key:"fps",get:function(){return this._settings.fps}},{key:"maxFiniteDuration",get:function(){return this.iterations>0?this.iterations*this.duration:this.duration}},{key:"_apply",value:function(t){for(var n=arguments.length>1&&void 0!==arguments[1]?arguments[1]:{},e=this._animations,r=e.length,i=0,u=0;u<r;u++)n[u]?i++:(n[u]=e[u](t,1),n[u]&&i++);return i}},{key:"_rollback",value:function(t){var n=this,e=1/0,r=null;this.rollbackStartOffset=t,this._rollingBack=!0,this._running=!0;this._id=window.requestAnimationFrame((function i(u){if(n._rollingBack){null==r&&(r=u);var o=Math.round(t-(u-r)*n.speed);if(o>n.duration&&e!==1/0){var a=!!n.alternate&&o/n.duration%2>1,l=o%n.duration;o=(l+=a?n.duration:0)||n.duration}var s=(n.fps?1e3/n.fps:0)*n.speed,f=Math.max(0,o);f<e-s&&(n.offset=f,e=f,n._apply(f));var c=n.iterations>0&&-1===n.fill&&o>=n.maxFiniteDuration;(o<=0||n.offset<o||c)&&n.stop(),n._id=window.requestAnimationFrame(i)}}))}},{key:"_start",value:function(){var t=this,n=arguments.length>0&&void 0!==arguments[0]?arguments[0]:0,e=-1/0,r=null,i={};this._running=!0;var u=function u(o){null==r&&(r=o);var a=Math.round((o-r)*t.speed+n),l=(t.fps?1e3/t.fps:0)*t.speed;if(a>e+l&&!t._rollingBack&&(t.offset=a,e=a,t._apply(a,i)===t._animations.length))return void t.pause(!0);t._id=window.requestAnimationFrame(u)};this._id=window.requestAnimationFrame(u)}},{key:"_pause",value:function(){this._id&&window.cancelAnimationFrame(this._id),this._running=!1}},{key:"play",value:function(){if(!this._running)return this._rollingBack?this._rollback(this.offset):this._start(this.offset)}},{key:"stop",value:function(){this._pause(),this.offset=0,this.rollbackStartOffset=0,this._rollingBack=!1,this._apply(0)}},{key:"reachedToEnd",value:function(){return this.iterations>0&&this.offset>=this.iterations*this.duration}},{key:"restart",value:function(){var t=arguments.length>0&&void 0!==arguments[0]&&arguments[0];this.stop(t),this.play(t)}},{key:"pause",value:function(){this._pause()}},{key:"reverse",value:function(){this.direction=-this.direction}}],[{key:"build",value:function(t,n){delete t.animationSettings,t.options=at(t.options,t.root,"5c7f360c"),t.animations.map((function(n){n.settings=at(n.s,t.root,"5c7f360c"),delete n.s,t.animationSettings||(t.animationSettings=n.settings)}));var e=t.version;if(!(t=rt(t,n)))return null;var r=t.options||{},i=new this(t.animations,t.animationSettings,e);return{el:t.svg,options:r,player:i}}},{key:"push",value:function(t){return this.build(t)}},{key:"init",value:function(){var t=this,n=window.__SVGATOR_PLAYER__&&window.__SVGATOR_PLAYER__["5c7f360c"];Array.isArray(n)&&n.splice(0).forEach((function(n){return t.build(n)}))}}]),t}();function ft(t){return d(t)+""}function ct(t){var n=arguments.length>1&&void 0!==arguments[1]?arguments[1]:" ";return t&&t.length?t.map(ft).join(n):""}function ht(t){if(!t)return"transparent";if(null==t.a||t.a>=1){var n=function(t){return 1===(t=parseInt(t).toString(16)).length?"0"+t:t},e=function(t){return t.charAt(0)===t.charAt(1)},r=n(t.r),i=n(t.g),u=n(t.b);return e(r)&&e(i)&&e(u)&&(r=r.charAt(0),i=i.charAt(0),u=u.charAt(0)),"#"+r+i+u}return"rgba("+t.r+","+t.g+","+t.b+","+t.a+")"}function vt(t){return t?"url(#"+t+")":"none"}!function(){for(var t=0,n=["ms","moz","webkit","o"],e=0;e<n.length&&!window.requestAnimationFrame;++e)window.requestAnimationFrame=window[n[e]+"RequestAnimationFrame"],window.cancelAnimationFrame=window[n[e]+"CancelAnimationFrame"]||window[n[e]+"CancelRequestAnimationFrame"];window.requestAnimationFrame||(window.requestAnimationFrame=function(n){var e=Date.now(),r=Math.max(0,16-(e-t)),i=window.setTimeout((function(){n(e+r)}),r);return t=e+r,i},window.cancelAnimationFrame=window.clearTimeout)}();var yt={f:null,i:function(t,n,e){return 0===t?n:1===t?e:{x:B(t,n.x,e.x),y:B(t,n.y,e.y)}},u:function(t,n){return function(e){var r=n(e);t.setAttribute("rx",ft(r.x)),t.setAttribute("ry",ft(r.y))}}},gt={f:null,i:function(t,n,e){return 0===t?n:1===t?e:{width:B(t,n.width,e.width),height:B(t,n.height,e.height)}},u:function(t,n){return function(e){var r=n(e);t.setAttribute("width",ft(r.width)),t.setAttribute("height",ft(r.height))}}};Object.freeze({M:2,L:2,Z:0,H:1,V:1,C:6,Q:4,T:2,S:4,A:7});var dt={},pt=null;function mt(t){var n=function(){if(pt)return pt;if("object"!==("undefined"==typeof document?"undefined":e(document))||!document.createElementNS)return{};var t=document.createElementNS("http://www.w3.org/2000/svg","svg");return t&&t.style?(t.style.position="absolute",t.style.opacity="0.01",t.style.zIndex="-9999",t.style.left="-9999px",t.style.width="1px",t.style.height="1px",pt={svg:t}):{}}().svg;if(!n)return function(t){return null};var r=document.createElementNS(n.namespaceURI,"path");r.setAttributeNS(null,"d",t),r.setAttributeNS(null,"fill","none"),r.setAttributeNS(null,"stroke","none"),n.appendChild(r);var i=r.getTotalLength();return function(t){var n=r.getPointAtLength(i*t);return{x:n.x,y:n.y}}}function bt(t){return dt[t]?dt[t]:dt[t]=mt(t)}function wt(t,n,e,r){if(!t||!r)return!1;var i=["M",t.x,t.y];if(n&&e&&(i.push("C"),i.push(n.x),i.push(n.y),i.push(e.x),i.push(e.y)),n?!e:e){var u=n||e;i.push("Q"),i.push(u.x),i.push(u.y)}return n||e||i.push("L"),i.push(r.x),i.push(r.y),i.join(" ")}function xt(t,n,e,r){var i=arguments.length>4&&void 0!==arguments[4]?arguments[4]:1,u=wt(t,n,e,r),o=bt(u);try{return o(i)}catch(t){return null}}function At(t,n,e){return t+(n-t)*e}function kt(t,n,e){var r=arguments.length>3&&void 0!==arguments[3]&&arguments[3],i={x:At(t.x,n.x,e),y:At(t.y,n.y,e)};return r&&(i.a=_t(t,n)),i}function _t(t,n){return Math.atan2(n.y-t.y,n.x-t.x)}function St(t,n,e,r){var i=1-r;return i*i*t+2*i*r*n+r*r*e}function Ot(t,n,e,r){return 2*(1-r)*(n-t)+2*r*(e-n)}function jt(t,n,e,r){var i=arguments.length>4&&void 0!==arguments[4]&&arguments[4],u=xt(t,n,null,e,r);return u||(u={x:St(t.x,n.x,e.x,r),y:St(t.y,n.y,e.y,r)}),i&&(u.a=Mt(t,n,e,r)),u}function Mt(t,n,e,r){return Math.atan2(Ot(t.y,n.y,e.y,r),Ot(t.x,n.x,e.x,r))}function Pt(t,n,e,r,i){var u=i*i;return i*u*(r-t+3*(n-e))+3*u*(t+e-2*n)+3*i*(n-t)+t}function Et(t,n,e,r,i){var u=1-i;return 3*(u*u*(n-t)+2*u*i*(e-n)+i*i*(r-e))}function It(t,n,e,r,i){var u=arguments.length>5&&void 0!==arguments[5]&&arguments[5],o=xt(t,n,e,r,i);return o||(o={x:Pt(t.x,n.x,e.x,r.x,i),y:Pt(t.y,n.y,e.y,r.y,i)}),u&&(o.a=Rt(t,n,e,r,i)),o}function Rt(t,n,e,r,i){return Math.atan2(Et(t.y,n.y,e.y,r.y,i),Et(t.x,n.x,e.x,r.x,i))}function Ft(t,n,e){var r=arguments.length>3&&void 0!==arguments[3]&&arguments[3];if(Tt(n)){if(qt(e))return jt(n,e.start,e,t,r)}else if(Tt(e)){if(Bt(n))return jt(n,n.end,e,t,r)}else{if(Bt(n))return qt(e)?It(n,n.end,e.start,e,t,r):jt(n,n.end,e,t,r);if(qt(e))return jt(n,e.start,e,t,r)}return kt(n,e,t,r)}function Nt(t,n,e){var r=Ft(t,n,e,!0);return r.a=function(t){return arguments.length>1&&void 0!==arguments[1]&&arguments[1]?t+Math.PI:t}(r.a)/m,r}function Tt(t){return!t.type||"corner"===t.type}function qt(t){return null!=t.start&&!Tt(t)}function Bt(t){return null!=t.end&&!Tt(t)}var Lt=new N;var Ct={f:ft,i:q},Dt={f:ft,i:L};function zt(t,n,e){return t.map((function(t){return function(t,n,e){var r=t.v;if(!r||"g"!==r.t||r.s||!r.v||!r.r)return t;var i=e.getElementById(r.r),u=i&&i.querySelectorAll("stop")||[];return r.s=r.v.map((function(t,n){var e=u[n]&&u[n].getAttribute("offset");return{c:t,o:e=d(parseInt(e)/100)}})),delete r.v,t}(t,0,e)}))}var Vt={gt:"gradientTransform",c:{x:"cx",y:"cy"},rd:"r",f:{x:"x1",y:"y1"},to:{x:"x2",y:"y2"}};function Gt(t,n,r,i,u,o,a,l){return zt(t,0,l),n=function(t,n,e){for(var r,i,u,o=t.length-1,a={},l=0;l<=o;l++)(r=t[l]).e&&(r.e=n(r.e)),r.v&&"g"===(i=r.v).t&&i.r&&(u=e.getElementById(i.r))&&(a[i.r]={e:u,s:u.querySelectorAll("stop")});return a}(t,i,l),function(i){var u=r(i,t,Yt);if(!u)return"none";if("c"===u.t)return ht(u.v);if("g"===u.t){if(!n[u.r])return vt(u.r);var o=n[u.r];return function(t,n){for(var e=t.s,r=e.length;r<n.length;r++){var i=e[e.length-1].cloneNode();i.id=Qt(i.id),t.e.appendChild(i),e=t.s=t.e.querySelectorAll("stop")}for(var u=0,o=e.length,a=n.length-1;u<o;u++)e[u].setAttribute("stop-color",ht(n[Math.min(u,a)].c)),e[u].setAttribute("offset",n[Math.min(u,a)].o)}(o,u.s),Object.keys(Vt).forEach((function(t){if(void 0!==u[t])if("object"!==e(Vt[t])){var n,r="gt"===t?(n=u[t],Array.isArray(n)?"matrix("+n.join(" ")+")":""):u[t],i=Vt[t];o.e.setAttribute(i,r)}else Object.keys(Vt[t]).forEach((function(n){if(void 0!==u[t][n]){var e=u[t][n],r=Vt[t][n];o.e.setAttribute(r,e)}}))})),vt(u.r)}return"none"}}function Yt(t,e,r){if(0===t)return e;if(1===t)return r;if(e&&r){var i=e.t;if(i===r.t)switch(e.t){case"c":return{t:i,v:z(t,e.v,r.v)};case"g":if(e.r===r.r){var u={t:i,s:$t(t,e.s,r.s),r:e.r};return e.gt&&r.gt&&(u.gt=function(t,n,e){var r=n.length;if(r!==e.length)return T(t,n,e);for(var i=new Array(r),u=0;u<r;u++)i[u]=q(t,n[u],e[u]);return i}(t,e.gt,r.gt)),e.c?(u.c=C(t,e.c,r.c),u.rd=B(t,e.rd,r.rd)):e.f&&(u.f=C(t,e.f,r.f),u.to=C(t,e.to,r.to)),u}}if("c"===e.t&&"g"===r.t||"c"===r.t&&"g"===e.t){var o="c"===e.t?e:r,a="g"===e.t?n({},e):n({},r),l=a.s.map((function(t){return{c:o.v,o:t.o}}));return a.s="c"===e.t?$t(t,l,a.s):$t(t,a.s,l),a}}return T(t,e,r)}function $t(t,n,e){if(n.length===e.length)return n.map((function(n,r){return Ut(t,n,e[r])}));for(var r=Math.max(n.length,e.length),i=[],u=0;u<r;u++){var o=Ut(t,n[Math.min(u,n.length-1)],e[Math.min(u,e.length-1)]);i.push(o)}return i}function Ut(t,n,e){return{o:L(t,n.o,e.o||0),c:z(t,n.c,e.c||{})}}function Qt(t){return t.replace(/-fill-([0-9]+)$/,(function(t,n){return"-fill-"+(+n+1)}))}var Ht={fill:Gt,"fill-opacity":Dt,stroke:Gt,"stroke-opacity":Dt,"stroke-width":Ct,"stroke-dashoffset":{f:ft,i:q},"stroke-dasharray":{f:function(t){var n=arguments.length>1&&void 0!==arguments[1]?arguments[1]:" ";return t&&t.length>0&&(t=t.map((function(t){return d(t,4)}))),ct(t,n)},i:function(t,n,e){var r,i,u,o=n.length,a=e.length;if(o!==a)if(0===o)n=V(o=a,0);else if(0===a)a=o,e=V(o,0);else{var l=(u=(r=o)*(i=a)/function(t,n){for(var e;n;)e=n,n=t%n,t=e;return t||1}(r,i))<0?-u:u;n=G(n,Math.floor(l/o)),e=G(e,Math.floor(l/a)),o=a=l}for(var s=[],f=0;f<o;f++)s.push(d(B(t,n[f],e[f])));return s}},opacity:Dt,transform:function(t,n,r,i){if(!(t=function(t,n){if(!t||"object"!==e(t))return null;var r=!1;for(var i in t)t.hasOwnProperty(i)&&(t[i]&&t[i].length?(t[i].forEach((function(t){t.e&&(t.e=n(t.e))})),r=!0):delete t[i]);return r?t:null}(t,i)))return null;var u=function(e,i,u){var o=arguments.length>3&&void 0!==arguments[3]?arguments[3]:null;return t[e]?r(i,t[e],u):n&&n[e]?n[e]:o};return n&&n.a&&t.o?function(n){var e=r(n,t.o,Nt);return Lt.recomposeSelf(e,u("r",n,q,0)+e.a,u("k",n,C),u("s",n,C),u("t",n,C)).toString()}:function(t){return Lt.recomposeSelf(u("o",t,Ft,null),u("r",t,q,0),u("k",t,C),u("s",t,C),u("t",t,C)).toString()}},r:Ct,"#size":gt,"#radius":yt,_:function(t,n){if(Array.isArray(t))for(var e=0;e<t.length;e++)this[t[e]]=n;else this[t]=n}},Jt=function(t){!function(t,n){if("function"!=typeof n&&null!==n)throw new TypeError("Super expression must either be null or a function");t.prototype=Object.create(n&&n.prototype,{constructor:{value:t,writable:!0,configurable:!0}}),n&&l(t,n)}(o,t);var n,e,i=(n=o,e=s(),function(){var t,r=a(n);if(e){var i=a(this).constructor;t=Reflect.construct(r,arguments,i)}else t=r.apply(this,arguments);return c(this,t)});function o(){return r(this,o),i.apply(this,arguments)}return u(o,null,[{key:"build",value:function(t){var n=h(a(o),"build",this).call(this,t,Ht);if(!n)return null;n.el,n.options,function(t,n,e){t.play()}(n.player)}}]),o}(st);return Jt.init(),Jt}));
(function(s,i,o,w,a,b){w[o]=w[o]||{};w[o][s]=w[o][s]||[];w[o][s].push(i);})('5c7f360c',{"root":"eYMlG6XIEuU1","version":"2022-05-04","animations":[{"elements":{"eYMlG6XIEuU6":{"transform":{"data":{"o":{"x":135.531475,"y":34.919705,"type":"corner"},"t":{"x":-135.531475,"y":-34.919705}},"keys":{"r":[{"t":0,"v":0},{"t":3000,"v":90}]}}},"eYMlG6XIEuU8":{"transform":{"data":{"o":{"x":187.955101,"y":30.864731,"type":"corner"},"t":{"x":-187.955101,"y":-30.864731}},"keys":{"r":[{"t":0,"v":-90},{"t":3000,"v":0}]}}},"eYMlG6XIEuU10":{"opacity":[{"t":0,"v":0.39},{"t":1200,"v":1},{"t":3000,"v":0.5}]}},"s":"MRDA1MzkwMzc3OThhODSc3Njg5N2U4NEc4M0UAzN1E0ZjQ4NDU0NTQ1BNDEzNzc5N2VZODc3YUTc4ODk3ZVA4NDgzWDCM3NGY0NjQxMzc3ZTgU5N2E4Nzc2ODk3ZTg0AODNIODgzNzRmNDU0MFU8zNzdiN2U4MTgxMzAdPNGZENDY0MTM3NzZCKODFGODk3YUs4NzgzFNzY4OTdhMzc0ZjdiNTzY4MTg4N2E0MTM3ODEg4NTdhN2E3OVQzNzRMmNDY5Mg|"}],"options":"MSDAxMDg4MmY4MDgxNmFU3ZjgxMmY0NzJmNzkK3YzZlNzEyZjhh"},'__SVGATOR_PLAYER__',window)]]></script></svg>